Coordinates
version=1
nRows=5
nColumns=46
inDegrees=yes

Units are S.I. units (second, meters, Newtons, ...)
Angles are in degrees.

endheader
time	pelvis_tilt	pelvis_list	pelvis_rotation	pelvis_tx	pelvis_ty	pelvis_tz	bb_angle	bb_tx	bb_ty	bb_tz	hip_flexion_r	hip_adduction_r	hip_rotation_r	knee_angle_r	knee_angle_r_beta	ankle_angle_r	subtalar_angle_r	mtp_angle_r	crank_angle_r	hip_flexion_l	hip_adduction_l	hip_rotation_l	knee_angle_l	knee_angle_l_beta	ankle_angle_l	subtalar_angle_l	mtp_angle_l	crank_angle_l	lumbar_extension	lumbar_bending	lumbar_rotation	arm_flex_r	arm_add_r	arm_rot_r	elbow_flex_r	pro_sup_r	wrist_flex_r	wrist_dev_r	arm_flex_l	arm_add_l	arm_rot_l	elbow_flex_l	pro_sup_l	wrist_flex_l	wrist_dev_l
      2.50000000	    -21.06117857	     -2.78372086	    -15.43074203	      0.31868372	      1.07778568	     -0.23411025	      0.00000000	      0.50000000	      0.00000000	      0.25000000	     75.65895869	     12.16616736	      7.31055108	    107.32161510	      1.87311554	     29.52518805	     -4.58654959	      0.00000000	      0.00000000	     25.60326227	    -13.58539572	    -13.48057866	     27.61408518	      0.48195671	    -14.31293058	     -4.16243416	      0.00000000	      0.00000000	    -54.66761571	     10.85427223	      3.92820553	     69.89507218	      4.32396805	     38.22425255	     54.52931437	     46.07674113	      0.00000000	      0.00000000	     38.81514627	    -11.38470157	     -5.71473208	     63.02833897	     44.33374383	      0.00000000	      0.00000000
      2.50500000	    -21.08592796	     -2.58511482	    -15.62247644	      0.31905989	      1.07844461	     -0.23410473	      0.00000000	      0.50000000	      0.00000000	      0.25000000	     75.64441785	     12.20050810	      7.44111298	    106.81385165	      1.86425340	     29.53418260	     -4.73131310	      0.00000000	      0.00000000	     25.60479434	    -13.41027144	    -13.43705677	     27.86924688	      0.48641012	    -14.70193409	     -4.55422381	      0.00000000	      0.00000000	    -54.75007280	     10.68576037	      3.84498735	     70.21655111	      4.28740501	     38.83671172	     54.23123506	     46.14615464	      0.00000000	      0.00000000	     39.50344791	    -10.92846603	     -6.24908175	     62.22033519	     44.21261562	      0.00000000	      0.00000000
      2.51000000	    -21.11163972	     -2.47411214	    -15.84510936	      0.31943715	      1.07913671	     -0.23399049	      0.00000000	      0.50000000	      0.00000000	      0.25000000	     75.58296890	     12.34348858	      7.55352415	    106.27256137	      1.85480610	     29.54194669	     -4.87015584	      0.00000000	      0.00000000	     25.62824617	    -13.37669439	    -13.46683888	     28.22089515	      0.49254754	    -15.03573124	     -4.83731611	      0.00000000	      0.00000000	    -54.86860055	     10.53667302	      3.98198128	     70.23598141	      4.13349060	     39.01674120	     54.51619397	     46.01352872	      0.00000000	      0.00000000	     40.22177237	    -10.43782823	     -6.54821390	     61.39036298	     44.01913301	      0.00000000	      0.00000000
      2.51500000	    -21.02369521	     -2.26010920	    -16.12956681	      0.31988473	      1.07992705	     -0.23373420	      0.00000000	      0.50000000	      0.00000000	      0.25000000	     75.41523974	     12.50016466	      7.79630062	    105.76831020	      1.84600526	     29.54949745	     -5.08791002	      0.00000000	      0.00000000	     25.49608154	    -13.25396939	    -13.70280740	     28.52973869	      0.49793787	    -15.29767434	     -4.90986711	      0.00000000	      0.00000000	    -55.12812623	     10.14904936	      4.08100028	     69.90466917	      4.07097265	     38.21194045	     55.36840447	     45.86578043	      0.00000000	      0.00000000	     40.84711839	    -10.00467112	     -6.94211333	     61.03896982	     43.86053442	      0.00000000	      0.00000000
      2.52000000	    -21.14897087	     -2.24095516	    -16.30449260	      0.32018223	      1.08048023	     -0.23367658	      0.00000000	      0.50000000	      0.00000000	      0.25000000	     75.41516705	     12.64072157	      7.78507641	    105.17700749	      1.83568508	     29.55735570	     -5.26923084	      0.00000000	      0.00000000	     25.70232765	    -13.34737494	    -13.68156966	     29.02586866	      0.50659698	    -15.57253992	     -5.22059419	      0.00000000	      0.00000000	    -55.19931726	     10.17902625	      4.04818392	     70.20894834	      4.10795528	     39.00818154	     55.10326881	     45.90728022	      0.00000000	      0.00000000	     41.07226445	     -9.72396765	     -7.58941183	     60.75161360	     43.80259168	      0.00000000	      0.00000000
